<svg id="svg" version="1.1" xmlns="http://www.w3.org/2000/svg" xmlns:xlink="http://www.w3.org/1999/xlink" width="400" height="266.6666666666667" viewBox="0, 0, 400,266.6666666666667"><g id="svgg"><path id="path0" d="M92.985 31.569 L 92.000 32.472 92.000 41.045 L 92.000 49.618 92.924 50.542 L 93.849 51.467 138.667 51.467 L 183.484 51.467 184.409 50.542 L 185.333 49.618 185.333 41.045 L 185.333 32.472 184.348 31.569 L 183.362 30.667 138.667 30.667 L 93.971 30.667 92.985 31.569 M106.268 36.377 C 108.277 38.387,106.425 41.416,103.667 40.630 C 102.565 40.317,101.696 38.848,101.969 37.761 C 102.448 35.854,104.942 35.051,106.268 36.377 M168.247 36.727 C 169.204 37.889,169.266 38.378,168.533 39.005 C 167.753 39.673,167.838 39.881,169.613 41.656 L 171.226 43.269 171.830 42.701 C 172.836 41.756,175.546 43.096,175.133 44.334 C 174.172 47.216,167.982 44.555,166.124 40.462 C 164.753 37.441,166.419 34.510,168.247 36.727 M103.080 40.749 C 103.900 41.449,104.706 41.534,105.741 41.030 C 107.673 40.090,108.840 41.204,108.882 44.029 C 108.912 45.989,108.624 46.133,104.675 46.133 C 100.643 46.133,100.262 45.942,100.276 43.918 C 100.291 41.682,101.961 39.795,103.080 40.749 M94.267 54.933 C 94.176 55.080,93.913 55.200,93.682 55.200 C 93.451 55.200,92.978 55.530,92.631 55.933 L 92.001 56.667 92.000 65.364 L 92.000 74.061 92.703 74.764 C 93.090 75.150,93.690 75.467,94.036 75.467 C 94.383 75.467,94.667 75.587,94.667 75.733 C 94.667 75.910,109.461 76.000,138.518 76.000 C 167.464 76.000,182.425 75.909,182.533 75.733 C 182.624 75.587,182.912 75.467,183.173 75.467 C 183.434 75.467,184.027 75.050,184.490 74.540 L 185.333 73.614 185.325 65.140 C 185.316 55.864,185.371 56.195,183.649 55.228 L 182.650 54.667 138.541 54.667 C 109.422 54.667,94.375 54.757,94.267 54.933 M105.574 60.120 C 107.311 61.018,107.642 62.678,106.372 64.124 C 104.426 66.341,100.896 63.983,102.248 61.369 C 102.979 59.956,104.299 59.460,105.574 60.120 M168.239 60.943 C 169.210 62.048,169.285 62.723,168.498 63.246 C 167.750 63.742,168.263 64.832,169.908 66.240 C 171.212 67.356,171.553 67.414,172.113 66.615 C 172.510 66.048,172.551 66.043,173.448 66.471 C 175.351 67.378,175.581 68.659,173.979 69.423 C 170.045 71.299,163.435 63.662,166.276 60.523 C 166.940 59.789,167.292 59.864,168.239 60.943 M103.600 65.333 C 103.691 65.480,104.178 65.600,104.682 65.600 C 105.187 65.600,105.600 65.480,105.600 65.333 C 105.600 64.709,107.924 65.045,108.377 65.735 C 109.060 66.779,109.075 69.468,108.400 69.979 C 107.502 70.659,101.504 70.570,100.800 69.867 C 100.079 69.145,100.077 67.114,100.797 65.933 C 101.340 65.044,103.178 64.650,103.600 65.333 M105.793 79.236 C 104.315 80.338,104.267 80.643,104.268 88.853 C 104.269 97.272,104.313 97.500,106.198 98.685 C 107.066 99.231,107.084 99.231,150.800 99.127 C 198.173 99.014,195.427 99.115,196.704 97.441 L 197.460 96.450 197.560 89.061 C 197.671 80.796,197.579 80.258,195.873 79.204 C 195.010 78.671,194.661 78.667,150.769 78.675 L 106.533 78.684 105.793 79.236 M118.813 84.439 C 120.332 86.078,119.226 88.533,116.969 88.533 C 116.289 88.533,115.733 88.653,115.733 88.800 C 115.733 89.239,117.792 89.220,118.253 88.777 C 119.861 87.231,122.283 91.177,120.963 93.192 C 120.392 94.063,113.935 94.253,113.021 93.425 C 111.618 92.155,113.051 88.533,114.957 88.533 C 115.542 88.533,115.543 88.527,115.041 87.972 C 114.691 87.584,114.533 87.015,114.533 86.133 C 114.533 83.749,117.196 82.694,118.813 84.439 M180.643 84.554 C 181.407 85.462,181.552 86.600,180.933 86.837 C 180.237 87.104,180.497 87.973,181.650 89.223 C 183.220 90.927,183.643 91.111,184.385 90.414 C 185.355 89.503,187.752 90.948,187.353 92.204 C 186.412 95.169,180.232 92.337,178.347 88.076 C 177.110 85.278,178.918 82.504,180.643 84.554 M277.435 94.173 C 277.124 94.518,275.755 96.480,274.392 98.533 C 267.107 109.508,260.439 116.267,256.898 116.267 C 254.426 116.267,252.267 112.385,252.267 107.944 C 252.267 105.981,253.407 99.658,254.132 97.600 C 254.261 97.233,254.447 96.530,254.545 96.036 L 254.723 95.139 253.695 95.289 C 252.745 95.428,252.167 95.538,248.800 96.218 C 246.505 96.681,246.344 96.833,243.454 101.243 C 232.865 117.403,231.610 121.169,235.087 126.366 C 236.802 128.929,236.781 128.493,235.305 130.832 C 231.186 137.361,231.104 138.371,234.164 144.767 C 235.174 146.879,236.000 148.650,236.000 148.702 C 236.000 148.755,237.320 151.515,238.933 154.836 C 240.547 158.157,241.867 160.908,241.867 160.951 C 241.867 160.994,242.841 163.047,244.033 165.514 C 246.406 170.430,246.370 170.280,247.181 178.533 C 247.354 180.293,247.609 182.608,247.748 183.678 C 247.886 184.747,248.000 186.134,248.000 186.760 C 248.000 188.683,248.192 188.780,252.133 188.862 L 255.600 188.933 255.676 191.667 L 255.752 194.400 154.143 194.400 L 52.533 194.400 52.533 202.133 L 52.533 209.867 65.484 209.867 C 75.356 209.867,78.574 209.787,79.018 209.533 C 79.480 209.268,105.352 209.173,204.933 209.067 L 330.267 208.933 330.338 201.667 L 330.409 194.400 306.538 194.400 L 282.667 194.400 282.667 193.800 C 282.667 193.470,282.484 192.360,282.261 191.333 C 282.038 190.307,281.751 188.987,281.623 188.400 C 280.910 185.138,280.030 180.902,279.593 178.628 C 279.378 177.509,279.318 177.699,282.975 167.867 C 283.411 166.693,283.947 165.193,284.164 164.533 C 284.382 163.873,284.666 163.093,284.794 162.800 C 285.074 162.164,286.145 159.135,287.200 156.000 C 287.619 154.753,288.260 152.893,288.623 151.867 C 288.986 150.840,289.667 148.783,290.136 147.296 L 290.989 144.593 290.460 143.030 C 289.929 141.459,289.217 139.102,288.377 136.135 C 288.093 135.131,287.665 134.314,287.229 133.940 C 286.846 133.612,286.173 133.042,285.733 132.674 L 284.933 132.003 285.852 131.233 L 286.771 130.462 286.337 128.764 C 286.098 127.831,285.543 125.687,285.103 124.000 C 283.871 119.273,282.003 111.807,280.800 106.800 C 280.200 104.307,279.479 101.307,279.196 100.133 C 278.098 95.579,277.934 95.957,281.217 95.482 C 282.381 95.313,283.983 95.061,284.778 94.921 C 285.572 94.781,286.622 94.667,287.111 94.667 C 288.658 94.667,288.071 94.187,286.333 94.031 C 280.246 93.483,278.025 93.518,277.435 94.173 M203.190 109.419 C 202.976 109.613,202.140 109.919,201.333 110.099 C 200.527 110.279,199.327 110.549,198.667 110.698 C 197.058 111.063,195.632 111.377,193.867 111.754 C 193.060 111.926,192.062 112.168,191.649 112.292 C 191.235 112.417,190.365 112.445,189.715 112.356 C 188.542 112.195,187.892 113.172,188.800 113.733 C 188.947 113.824,189.067 114.184,189.067 114.533 C 189.067 114.883,189.187 115.243,189.333 115.333 C 189.480 115.424,189.600 115.717,189.600 115.985 C 189.600 116.609,190.525 116.852,191.730 116.544 C 192.245 116.412,193.387 116.166,194.267 115.997 C 195.147 115.828,196.347 115.590,196.933 115.467 C 197.520 115.344,198.720 115.105,199.600 114.936 C 200.480 114.767,201.634 114.518,202.164 114.381 C 202.695 114.245,203.376 114.133,203.679 114.133 C 204.745 114.133,205.067 113.449,205.067 111.181 L 205.067 109.067 204.324 109.067 C 203.915 109.067,203.405 109.225,203.190 109.419 M166.800 154.827 C 158.869 158.869,162.288 170.929,171.125 170.080 C 179.121 169.312,181.011 158.221,173.733 154.771 C 171.793 153.851,168.665 153.876,166.800 154.827 M172.424 157.505 C 174.626 158.526,175.845 161.031,175.222 163.255 C 173.932 167.860,167.541 168.384,165.711 164.034 C 163.924 159.783,168.253 155.571,172.424 157.505 " stroke="none" fill="#e2e2ec" fill-rule="evenodd"></path><path id="path1" d="M252.800 30.883 C 252.800 30.991,251.990 31.114,251.000 31.157 C 250.010 31.201,249.086 31.348,248.947 31.485 C 248.807 31.621,248.357 31.733,247.947 31.733 C 247.536 31.733,247.200 31.853,247.200 32.000 C 247.200 32.147,246.960 32.267,246.667 32.267 C 246.373 32.267,246.133 32.387,246.133 32.533 C 246.133 32.680,245.893 32.800,245.600 32.800 C 245.307 32.800,245.067 32.920,245.067 33.067 C 245.067 33.213,244.827 33.333,244.533 33.333 C 244.240 33.333,244.000 33.453,244.000 33.600 C 244.000 33.747,243.850 33.867,243.667 33.867 C 243.229 33.867,241.867 35.045,241.867 35.423 C 241.867 35.585,241.507 35.984,241.067 36.309 C 240.627 36.634,240.267 37.014,240.267 37.152 C 240.267 37.291,240.023 37.615,239.726 37.873 C 239.042 38.466,237.271 42.007,237.129 43.065 C 237.070 43.504,236.920 43.926,236.795 44.003 C 236.670 44.080,236.530 44.771,236.484 45.538 C 236.438 46.306,236.327 46.933,236.238 46.933 C 236.148 46.933,236.053 47.865,236.025 49.003 L 235.975 51.072 237.254 50.989 C 238.437 50.912,239.133 50.711,240.330 50.102 C 240.584 49.973,240.920 49.867,241.075 49.867 C 241.732 49.867,245.603 46.947,248.043 44.612 C 251.137 41.652,250.761 41.631,253.522 44.912 C 256.005 47.863,259.782 51.840,262.535 54.404 C 264.386 56.127,265.009 56.647,267.627 58.651 L 268.988 59.692 269.131 61.786 C 269.288 64.071,269.829 65.350,271.282 66.872 L 272.115 67.744 271.591 68.736 C 270.421 70.950,263.045 77.600,261.759 77.600 C 261.542 77.600,261.296 77.711,261.213 77.846 C 260.773 78.558,259.477 78.433,258.411 77.577 C 254.616 74.527,249.441 79.398,252.472 83.167 C 254.562 85.766,259.708 84.540,259.742 81.435 C 259.752 80.467,260.151 79.961,261.338 79.406 C 261.853 79.165,262.729 78.660,263.283 78.284 C 263.837 77.908,264.352 77.600,264.427 77.600 C 265.474 77.600,272.267 70.786,272.267 69.736 C 272.267 68.969,272.763 68.533,273.638 68.533 C 274.464 68.533,274.837 68.134,274.459 67.655 C 274.042 67.127,273.918 65.889,274.254 65.610 C 274.556 65.360,276.538 66.446,276.756 66.981 C 276.804 67.102,276.947 67.200,277.073 67.200 C 277.440 67.200,276.722 66.014,275.791 65.083 C 275.234 64.526,274.933 63.964,274.933 63.479 C 274.933 62.564,275.605 61.898,276.065 62.358 C 276.234 62.528,276.575 62.667,276.821 62.667 C 277.067 62.667,277.420 62.850,277.605 63.073 C 278.081 63.647,278.241 63.364,277.820 62.692 C 277.560 62.275,277.546 62.012,277.763 61.666 C 278.089 61.146,279.200 60.872,279.200 61.312 C 279.200 61.679,282.442 64.787,282.833 64.794 C 282.997 64.797,283.597 65.320,284.166 65.955 C 285.242 67.157,285.405 67.356,286.937 69.333 C 287.448 69.993,287.957 70.573,288.067 70.622 C 288.177 70.671,288.267 70.881,288.267 71.089 C 288.267 71.297,288.387 71.467,288.533 71.467 C 288.680 71.467,288.800 71.647,288.800 71.867 C 288.800 72.087,288.920 72.267,289.067 72.267 C 289.563 72.267,289.080 70.832,288.424 70.358 C 288.290 70.261,288.163 69.961,288.141 69.691 C 288.119 69.421,287.952 68.928,287.771 68.594 C 287.590 68.261,287.510 67.880,287.592 67.746 C 287.675 67.613,287.620 67.428,287.471 67.336 C 287.322 67.244,287.200 66.756,287.200 66.251 C 287.200 65.746,287.080 65.333,286.933 65.333 C 286.787 65.333,286.667 64.905,286.667 64.381 C 286.667 63.857,286.498 63.260,286.291 63.053 C 286.036 62.798,285.962 62.334,286.060 61.606 C 286.154 60.901,286.100 60.533,285.902 60.533 C 285.733 60.533,285.596 60.094,285.591 59.533 C 285.585 58.983,285.418 58.239,285.219 57.880 C 285.020 57.521,284.915 57.076,284.986 56.892 C 285.056 56.709,284.937 56.305,284.720 55.995 C 284.503 55.685,284.383 55.213,284.453 54.946 C 284.523 54.679,284.449 54.380,284.290 54.281 C 284.130 54.182,284.000 53.819,284.000 53.473 C 284.000 53.127,283.855 52.796,283.678 52.737 C 283.500 52.678,283.330 52.338,283.299 51.981 C 283.216 51.009,282.901 50.133,282.636 50.133 C 282.506 50.133,282.398 49.983,282.395 49.800 C 282.387 49.278,280.560 45.798,279.955 45.153 C 279.656 44.834,279.490 44.444,279.588 44.286 C 279.685 44.129,279.638 44.000,279.482 44.000 C 279.327 44.000,279.200 43.838,279.200 43.640 C 279.200 43.441,278.870 42.929,278.467 42.500 C 278.063 42.072,277.374 41.244,276.936 40.661 C 275.969 39.375,273.037 36.538,272.667 36.530 C 272.520 36.527,271.933 36.050,271.361 35.470 C 270.790 34.891,270.219 34.480,270.093 34.558 C 269.966 34.637,269.791 34.514,269.704 34.285 C 269.616 34.057,269.444 33.932,269.322 34.007 C 269.199 34.083,269.002 33.992,268.883 33.806 C 268.586 33.340,266.464 32.267,265.841 32.267 C 265.562 32.267,265.333 32.173,265.333 32.058 C 265.333 31.943,265.010 31.823,264.615 31.790 C 264.220 31.758,263.830 31.628,263.748 31.502 C 263.414 30.988,252.800 30.388,252.800 30.883 M278.667 64.327 C 278.667 64.813,279.139 65.216,279.402 64.954 C 279.493 64.862,279.365 64.584,279.117 64.337 C 278.702 63.921,278.667 63.920,278.667 64.327 M289.867 74.133 C 289.867 74.280,289.976 74.400,290.109 74.400 C 290.492 74.400,290.685 76.975,290.831 84.048 L 290.967 90.630 290.362 90.954 C 290.029 91.132,288.732 91.373,287.478 91.489 C 286.225 91.605,283.940 91.832,282.400 91.993 L 279.600 92.285 278.897 91.455 L 278.193 90.625 278.072 91.779 C 277.905 93.355,277.872 93.333,280.469 93.333 C 282.456 93.333,285.946 93.660,287.933 94.031 C 288.772 94.188,288.683 94.860,287.800 95.041 C 287.158 95.173,283.491 95.699,280.067 96.150 C 278.866 96.308,278.772 96.478,279.178 97.760 C 279.313 98.185,279.801 100.153,280.262 102.133 C 281.579 107.790,285.513 123.522,286.529 127.200 L 287.450 130.533 286.611 131.306 L 285.771 132.078 286.419 132.595 C 288.364 134.149,288.359 134.140,289.954 139.526 L 291.505 144.763 290.437 148.048 C 288.900 152.777,286.381 160.079,284.796 164.400 C 284.043 166.453,283.084 169.093,282.664 170.267 C 282.244 171.440,281.474 173.540,280.952 174.933 C 279.772 178.082,279.773 178.114,281.334 185.067 C 281.757 186.952,282.682 191.376,282.966 192.867 L 283.257 194.400 292.962 194.400 L 302.667 194.400 302.667 192.800 C 302.667 191.911,302.785 191.200,302.933 191.200 C 303.106 191.200,303.200 188.178,303.200 182.667 C 303.200 177.156,303.294 174.133,303.467 174.133 C 303.639 174.133,303.733 171.200,303.733 165.867 C 303.733 160.533,303.828 157.600,304.000 157.600 C 304.147 157.600,304.267 157.840,304.267 158.133 C 304.267 158.427,304.387 158.667,304.533 158.667 C 304.680 158.667,304.800 158.824,304.800 159.016 C 304.800 159.209,305.040 159.624,305.333 159.939 C 305.627 160.253,305.867 160.696,305.867 160.922 C 305.867 161.148,305.987 161.333,306.133 161.333 C 306.280 161.333,306.400 161.573,306.400 161.867 C 306.400 162.160,306.520 162.400,306.667 162.400 C 306.813 162.400,306.933 162.640,306.933 162.933 C 306.933 163.227,307.053 163.467,307.200 163.467 C 307.347 163.467,307.467 163.657,307.467 163.890 C 307.467 164.322,310.282 167.200,310.705 167.200 C 310.833 167.200,311.315 167.560,311.775 168.000 C 312.236 168.440,312.775 168.800,312.973 168.800 C 313.171 168.800,313.333 168.920,313.333 169.067 C 313.333 169.213,313.573 169.333,313.867 169.333 C 314.160 169.333,314.400 169.453,314.400 169.600 C 314.400 169.747,314.640 169.867,314.933 169.867 C 315.227 169.867,315.467 169.987,315.467 170.133 C 315.467 170.280,315.827 170.400,316.267 170.400 C 316.707 170.400,317.067 170.520,317.067 170.667 C 317.067 170.813,317.547 170.933,318.133 170.933 C 318.720 170.933,319.200 171.053,319.200 171.200 C 319.200 171.348,319.911 171.467,320.800 171.467 C 321.689 171.467,322.400 171.348,322.400 171.200 C 322.400 171.053,322.880 170.933,323.467 170.933 C 324.053 170.933,324.533 170.813,324.533 170.667 C 324.533 170.520,324.773 170.400,325.067 170.400 C 325.360 170.400,325.600 170.280,325.600 170.133 C 325.600 169.987,325.792 169.867,326.026 169.867 C 326.261 169.867,326.771 169.529,327.160 169.117 C 327.549 168.705,328.077 168.288,328.333 168.192 C 328.590 168.096,328.800 167.881,328.800 167.715 C 328.800 167.550,329.160 167.078,329.600 166.667 C 330.040 166.256,330.400 165.727,330.400 165.493 C 330.400 165.259,330.520 165.067,330.667 165.067 C 330.813 165.067,330.933 164.882,330.933 164.656 C 330.933 164.429,331.173 163.987,331.467 163.672 C 331.760 163.357,332.000 162.822,332.000 162.483 C 332.000 162.144,332.120 161.867,332.267 161.867 C 332.413 161.867,332.533 161.627,332.533 161.333 C 332.533 161.040,332.653 160.800,332.800 160.800 C 332.948 160.800,333.067 160.089,333.067 159.200 C 333.067 158.311,332.948 157.600,332.800 157.600 C 332.653 157.600,332.533 157.000,332.533 156.267 C 332.533 155.533,332.413 154.933,332.267 154.933 C 332.120 154.933,332.000 154.333,332.000 153.600 C 332.000 152.867,331.880 152.267,331.733 152.267 C 331.587 152.267,331.467 151.734,331.467 151.082 C 331.467 150.431,331.347 149.824,331.200 149.733 C 331.053 149.643,330.933 149.096,330.933 148.518 C 330.933 147.940,330.813 147.467,330.667 147.467 C 330.520 147.467,330.400 146.987,330.400 146.400 C 330.400 145.813,330.280 145.333,330.133 145.333 C 329.987 145.333,329.867 144.733,329.867 144.000 C 329.867 143.267,329.747 142.667,329.600 142.667 C 329.453 142.667,329.333 142.187,329.333 141.600 C 329.333 141.013,329.213 140.533,329.067 140.533 C 328.920 140.533,328.800 140.053,328.800 139.467 C 328.800 138.880,328.680 138.400,328.533 138.400 C 328.387 138.400,328.267 137.920,328.267 137.333 C 328.267 136.747,328.147 136.267,328.000 136.267 C 327.037 136.267,327.770 133.868,329.067 132.774 C 329.800 132.156,330.400 131.544,330.400 131.414 C 330.400 131.284,330.640 130.920,330.933 130.605 C 331.227 130.290,331.467 129.875,331.467 129.683 C 331.467 129.491,331.583 129.333,331.725 129.333 C 331.867 129.333,331.915 129.154,331.831 128.936 C 331.743 128.708,331.861 128.467,332.106 128.374 C 332.341 128.283,332.533 127.982,332.533 127.705 C 332.533 127.427,332.653 127.200,332.800 127.200 C 332.947 127.200,333.067 126.960,333.067 126.667 C 333.067 126.373,333.197 126.133,333.356 126.133 C 333.514 126.133,333.591 125.983,333.525 125.800 C 333.459 125.617,333.534 125.227,333.691 124.933 C 333.847 124.640,334.019 124.102,334.072 123.738 C 334.125 123.374,334.298 122.996,334.457 122.898 C 334.622 122.796,334.683 122.336,334.599 121.818 C 334.512 121.286,334.602 120.646,334.817 120.258 C 335.289 119.404,335.301 117.096,334.837 116.108 C 334.637 115.682,334.501 114.973,334.534 114.533 C 334.568 114.093,334.509 113.613,334.403 113.467 C 334.297 113.320,334.047 112.630,333.847 111.933 C 333.647 111.237,333.390 110.667,333.275 110.667 C 333.160 110.667,333.067 110.478,333.067 110.248 C 333.067 110.017,332.886 109.647,332.664 109.426 C 332.443 109.205,332.330 108.913,332.413 108.779 C 332.497 108.644,332.438 108.533,332.282 108.533 C 332.127 108.533,332.000 108.358,332.000 108.145 C 332.000 107.638,327.562 103.200,327.055 103.200 C 326.842 103.200,326.667 103.080,326.667 102.933 C 326.667 102.787,326.427 102.667,326.133 102.667 C 325.840 102.667,325.600 102.568,325.600 102.448 C 325.600 102.328,325.000 102.066,324.267 101.867 C 323.533 101.667,322.923 101.375,322.910 101.218 C 322.897 101.062,322.888 99.765,322.889 98.336 C 322.890 96.907,322.780 95.670,322.645 95.587 C 322.510 95.503,322.400 95.142,322.400 94.784 C 322.400 94.426,322.280 94.133,322.133 94.133 C 321.987 94.133,321.867 93.906,321.867 93.629 C 321.867 93.351,321.669 93.048,321.428 92.956 C 321.188 92.863,321.058 92.720,321.140 92.638 C 321.294 92.484,320.845 91.860,319.800 90.779 C 319.470 90.437,319.200 90.038,319.200 89.891 C 319.200 89.745,318.780 89.426,318.267 89.182 C 317.753 88.939,317.333 88.626,317.333 88.487 C 317.333 88.349,317.231 88.299,317.105 88.376 C 316.980 88.454,316.599 88.221,316.259 87.858 C 315.919 87.496,315.421 87.200,315.154 87.200 C 314.886 87.200,314.667 87.080,314.667 86.933 C 314.667 86.787,314.367 86.667,314.000 86.667 C 313.633 86.667,313.333 86.547,313.333 86.400 C 313.333 86.253,313.100 86.133,312.816 86.133 C 312.531 86.133,312.224 86.013,312.133 85.867 C 312.043 85.720,311.683 85.600,311.333 85.600 C 310.984 85.600,310.624 85.480,310.533 85.333 C 310.443 85.187,310.023 85.067,309.600 85.067 C 309.177 85.067,308.757 84.947,308.667 84.800 C 308.576 84.653,308.156 84.533,307.733 84.533 C 307.311 84.533,306.891 84.413,306.800 84.267 C 306.709 84.120,306.222 84.000,305.718 84.000 C 305.213 84.000,304.800 83.906,304.800 83.791 C 304.800 83.677,304.482 83.557,304.094 83.525 C 303.705 83.492,303.230 83.336,303.039 83.177 C 302.847 83.018,302.567 82.963,302.417 83.056 C 302.267 83.149,301.872 83.074,301.539 82.889 C 301.206 82.704,300.837 82.581,300.719 82.615 C 300.601 82.649,300.244 82.494,299.926 82.272 C 299.608 82.049,299.135 81.867,298.874 81.867 C 298.613 81.867,298.400 81.747,298.400 81.600 C 298.400 81.453,298.215 81.333,297.989 81.333 C 297.763 81.333,297.320 81.093,297.005 80.800 C 296.690 80.507,296.275 80.267,296.083 80.267 C 295.891 80.267,295.733 80.127,295.733 79.956 C 295.733 79.784,295.657 79.720,295.565 79.813 C 295.472 79.906,295.163 79.686,294.879 79.324 C 294.594 78.963,294.246 78.667,294.105 78.667 C 293.789 78.667,292.000 76.904,292.000 76.593 C 292.000 76.469,291.790 76.135,291.533 75.850 C 291.277 75.566,290.896 75.003,290.688 74.600 C 290.313 73.873,289.867 73.620,289.867 74.133 M237.933 77.216 C 237.163 77.959,236.533 78.709,236.533 78.883 C 236.533 79.057,236.406 79.200,236.251 79.200 C 236.096 79.200,236.043 79.320,236.133 79.467 C 236.224 79.613,236.173 79.733,236.019 79.733 C 235.596 79.733,233.766 84.155,234.019 84.565 C 234.094 84.686,233.970 85.142,233.744 85.579 C 233.277 86.483,233.205 87.622,233.600 87.867 C 233.747 87.957,233.867 88.444,233.867 88.949 C 233.867 89.454,233.960 89.867,234.075 89.867 C 234.190 89.867,234.441 90.401,234.634 91.054 C 234.827 91.707,235.363 92.637,235.825 93.121 C 236.288 93.604,236.666 94.086,236.666 94.191 C 236.667 94.297,236.877 94.628,237.133 94.928 C 237.390 95.228,237.600 95.573,237.600 95.695 C 237.600 95.817,237.840 96.135,238.133 96.400 C 239.007 97.191,238.830 97.867,237.749 97.867 C 237.244 97.867,236.757 97.987,236.667 98.133 C 236.576 98.280,236.149 98.400,235.718 98.400 C 235.286 98.400,234.933 98.520,234.933 98.667 C 234.933 98.813,234.573 98.933,234.133 98.933 C 233.693 98.933,233.333 99.053,233.333 99.200 C 233.333 99.347,232.973 99.467,232.533 99.467 C 232.093 99.467,231.733 99.587,231.733 99.733 C 231.733 99.880,231.540 100.000,231.303 100.000 C 230.871 100.000,229.067 101.773,229.067 102.197 C 229.067 102.321,228.827 102.680,228.533 102.995 C 228.240 103.310,228.000 103.725,228.000 103.917 C 228.000 104.109,227.880 104.267,227.733 104.267 C 227.587 104.267,227.467 104.452,227.467 104.678 C 227.467 104.904,227.227 105.347,226.933 105.661 C 226.640 105.976,226.400 106.391,226.400 106.584 C 226.400 106.776,226.280 106.933,226.133 106.933 C 225.987 106.933,225.867 107.147,225.867 107.408 C 225.867 107.669,225.627 108.055,225.333 108.267 C 225.040 108.478,224.800 108.810,224.800 109.003 C 224.800 109.197,224.560 109.613,224.267 109.928 C 223.973 110.243,223.733 110.658,223.733 110.850 C 223.733 111.043,223.613 111.200,223.467 111.200 C 223.320 111.200,223.200 111.385,223.200 111.611 C 223.200 111.837,222.960 112.280,222.667 112.595 C 222.373 112.910,222.133 113.325,222.133 113.517 C 222.133 113.709,222.013 113.867,221.867 113.867 C 221.720 113.867,221.600 114.052,221.600 114.278 C 221.600 114.504,221.360 114.947,221.067 115.261 C 220.773 115.576,220.533 115.991,220.533 116.184 C 220.533 116.376,220.413 116.533,220.267 116.533 C 220.120 116.533,220.000 116.747,220.000 117.008 C 220.000 117.269,219.760 117.655,219.467 117.867 C 219.173 118.078,218.933 118.465,218.933 118.726 C 218.933 118.986,218.813 119.200,218.667 119.200 C 218.520 119.200,218.400 119.414,218.400 119.674 C 218.400 119.935,218.160 120.322,217.867 120.533 C 217.573 120.745,217.333 121.076,217.333 121.270 C 217.333 121.464,217.093 121.880,216.800 122.195 C 216.507 122.510,216.267 122.925,216.267 123.117 C 216.267 123.309,216.147 123.467,216.000 123.467 C 215.853 123.467,215.733 123.652,215.733 123.878 C 215.733 124.104,215.493 124.547,215.200 124.861 C 214.907 125.176,214.667 125.591,214.667 125.784 C 214.667 125.976,214.547 126.133,214.400 126.133 C 214.253 126.133,214.133 126.322,214.133 126.552 C 214.133 126.783,213.953 127.151,213.733 127.371 C 212.974 128.130,213.202 129.417,214.671 132.667 C 214.936 133.253,215.534 134.693,216.000 135.867 C 216.466 137.040,217.070 138.490,217.343 139.088 C 217.616 139.687,218.094 140.825,218.407 141.617 C 218.719 142.409,219.265 143.693,219.621 144.470 C 219.976 145.247,220.267 145.940,220.267 146.011 C 220.267 146.081,220.507 146.678,220.800 147.336 C 221.093 147.995,221.573 149.072,221.867 149.730 C 222.160 150.389,222.400 150.986,222.400 151.057 C 222.400 151.128,222.760 151.973,223.200 152.933 C 223.640 153.894,224.000 154.734,224.000 154.800 C 224.000 154.866,224.360 155.706,224.800 156.667 C 225.240 157.627,225.600 158.467,225.600 158.532 C 225.600 158.597,225.887 159.284,226.237 160.059 C 226.587 160.833,227.130 162.037,227.443 162.733 C 227.757 163.430,228.086 164.000,228.176 164.000 C 228.453 164.000,229.599 162.551,229.600 162.200 C 229.600 162.017,229.840 161.867,230.133 161.867 C 230.607 161.867,230.667 162.044,230.667 163.467 C 230.667 164.356,230.785 165.067,230.933 165.067 C 231.081 165.067,231.200 165.778,231.200 166.667 C 231.200 167.556,231.319 168.267,231.467 168.267 C 231.615 168.267,231.733 168.978,231.733 169.867 C 231.733 170.756,231.852 171.467,232.000 171.467 C 232.148 171.467,232.267 172.178,232.267 173.067 C 232.267 173.956,232.385 174.667,232.533 174.667 C 232.681 174.667,232.800 175.378,232.800 176.267 C 232.800 177.156,232.919 177.867,233.067 177.867 C 233.215 177.867,233.333 178.578,233.333 179.467 C 233.333 180.356,233.452 181.067,233.600 181.067 C 233.748 181.067,233.867 181.778,233.867 182.667 C 233.867 183.556,233.985 184.267,234.133 184.267 C 234.281 184.267,234.400 184.978,234.400 185.867 C 234.400 186.756,234.519 187.467,234.667 187.467 C 234.813 187.467,234.933 187.707,234.933 188.000 C 234.933 188.521,234.756 188.533,227.482 188.533 C 223.384 188.533,219.978 188.623,219.914 188.733 C 219.849 188.843,220.001 190.104,220.251 191.536 C 220.502 192.967,220.648 194.197,220.575 194.269 C 220.503 194.341,228.329 194.400,237.965 194.400 L 255.485 194.400 255.409 191.667 L 255.333 188.933 251.600 188.800 L 247.867 188.667 247.416 184.667 C 247.169 182.467,246.837 179.347,246.678 177.733 C 245.930 170.092,246.334 171.402,241.862 162.133 C 239.633 157.513,236.370 150.674,234.612 146.934 L 231.414 140.135 231.512 138.401 C 231.624 136.432,232.709 133.871,234.805 130.631 L 236.037 128.726 235.099 127.363 C 230.842 121.178,231.944 117.782,244.348 98.871 C 245.825 96.619,246.094 96.463,249.733 95.745 C 250.613 95.571,251.767 95.318,252.298 95.181 C 252.828 95.045,253.571 94.933,253.949 94.933 C 254.887 94.933,255.022 94.594,254.542 93.446 C 254.317 92.908,254.133 91.967,254.133 91.354 C 254.133 90.741,254.025 90.126,253.893 89.987 C 253.760 89.847,253.588 89.193,253.510 88.533 C 253.161 85.588,253.169 85.600,251.582 85.600 C 249.736 85.600,248.277 85.047,245.867 83.432 C 243.742 82.009,240.288 78.139,240.261 77.152 C 240.226 75.863,239.311 75.889,237.933 77.216 M197.713 88.667 C 197.713 91.747,197.752 92.970,197.799 91.386 C 197.846 89.801,197.846 87.281,197.799 85.786 C 197.751 84.290,197.713 85.587,197.713 88.667 M127.133 99.400 C 137.143 99.439,153.523 99.439,163.533 99.400 C 173.543 99.361,165.353 99.330,145.333 99.330 C 125.313 99.330,117.123 99.361,127.133 99.400 M191.584 131.847 C 192.034 132.212,193.188 132.259,200.384 132.209 L 208.667 132.151 200.267 132.009 C 195.647 131.931,191.687 131.768,191.467 131.647 C 191.247 131.526,191.300 131.616,191.584 131.847 M128.040 132.428 C 127.842 132.652,127.732 132.888,127.797 132.953 C 127.862 133.017,128.132 132.829,128.399 132.535 C 128.665 132.241,128.774 132.005,128.641 132.010 C 128.509 132.016,128.238 132.204,128.040 132.428 M209.372 132.868 C 209.759 133.197,210.206 133.707,210.363 134.000 C 210.521 134.293,210.654 134.393,210.659 134.220 C 210.670 133.790,209.357 132.266,208.976 132.268 C 208.806 132.269,208.984 132.539,209.372 132.868 M210.712 135.467 C 210.725 136.567,211.145 137.704,211.155 136.667 C 211.159 136.227,211.059 135.627,210.933 135.333 C 210.725 134.849,210.705 134.861,210.712 135.467 M211.250 138.533 C 211.257 138.827,211.355 139.427,211.467 139.867 L 211.670 140.667 211.683 139.867 C 211.690 139.427,211.593 138.827,211.467 138.533 L 211.237 138.000 211.250 138.533 M211.791 141.600 C 211.794 141.967,211.888 142.627,212.000 143.067 L 212.204 143.867 212.209 143.067 C 212.211 142.627,212.117 141.967,212.000 141.600 L 211.786 140.933 211.791 141.600 M212.320 144.800 C 212.320 145.167,212.416 145.767,212.533 146.133 L 212.747 146.800 212.747 146.133 C 212.747 145.767,212.651 145.167,212.533 144.800 L 212.320 144.133 212.320 144.800 M212.850 147.867 C 212.843 148.307,212.941 148.907,213.067 149.200 L 213.296 149.733 213.283 149.200 C 213.276 148.907,213.179 148.307,213.067 147.867 L 212.863 147.067 212.850 147.867 M213.379 151.067 C 213.374 151.507,213.474 152.107,213.600 152.400 C 213.913 153.129,213.913 151.912,213.600 150.933 C 213.392 150.283,213.386 150.287,213.379 151.067 M213.920 154.133 C 213.920 154.500,214.016 155.100,214.133 155.467 L 214.347 156.133 214.347 155.467 C 214.347 155.100,214.251 154.500,214.133 154.133 L 213.920 153.467 213.920 154.133 M214.445 157.333 C 214.458 158.434,214.878 159.571,214.888 158.533 C 214.892 158.093,214.793 157.493,214.667 157.200 C 214.458 156.715,214.438 156.727,214.445 157.333 M214.991 160.267 C 214.994 160.633,215.088 161.293,215.200 161.733 L 215.404 162.533 215.409 161.733 C 215.411 161.293,215.317 160.633,215.200 160.267 L 214.986 159.600 214.991 160.267 M215.520 163.467 C 215.520 163.833,215.616 164.433,215.733 164.800 L 215.947 165.467 215.947 164.800 C 215.947 164.433,215.851 163.833,215.733 163.467 L 215.520 162.800 215.520 163.467 M216.058 166.533 C 216.055 166.973,216.149 167.633,216.267 168.000 L 216.480 168.667 216.475 168.000 C 216.472 167.633,216.379 166.973,216.267 166.533 L 216.063 165.733 216.058 166.533 M216.579 169.733 C 216.574 170.173,216.674 170.773,216.800 171.067 C 217.113 171.796,217.113 170.578,216.800 169.600 C 216.592 168.950,216.586 168.953,216.579 169.733 M217.112 172.933 C 217.108 173.373,217.207 173.973,217.333 174.267 C 217.647 174.996,217.647 173.778,217.333 172.800 C 217.125 172.150,217.120 172.153,217.112 172.933 M217.637 176.000 C 217.637 176.367,217.741 176.907,217.867 177.200 C 218.076 177.686,218.096 177.674,218.096 177.067 C 218.096 176.700,217.993 176.160,217.867 175.867 C 217.658 175.381,217.637 175.392,217.637 176.000 M343.601 227.465 C 343.335 227.759,343.205 228.000,343.311 228.000 C 343.592 228.000,344.352 227.197,344.208 227.052 C 344.141 226.985,343.868 227.171,343.601 227.465 M332.935 238.132 C 332.669 238.426,332.538 238.667,332.644 238.667 C 332.926 238.667,333.686 237.863,333.541 237.719 C 333.474 237.652,333.201 237.837,332.935 238.132 " stroke="none" fill="#3476b4" fill-rule="evenodd"></path><path id="path2" d="M102.850 36.377 C 100.755 38.318,102.617 41.423,105.400 40.630 C 106.501 40.317,107.370 38.848,107.097 37.761 C 106.610 35.818,104.274 35.057,102.850 36.377 M101.629 40.905 C 100.703 41.419,100.287 42.346,100.276 43.918 C 100.262 45.942,100.643 46.133,104.675 46.133 C 108.624 46.133,108.912 45.989,108.882 44.029 C 108.840 41.204,107.673 40.090,105.741 41.030 C 104.706 41.534,103.900 41.449,103.080 40.749 C 102.732 40.453,102.377 40.491,101.629 40.905 M103.403 60.151 C 101.785 61.029,101.544 62.726,102.824 64.246 C 104.708 66.485,108.368 63.631,106.760 61.177 C 105.913 59.884,104.622 59.490,103.403 60.151 M100.797 65.933 C 100.077 67.114,100.079 69.145,100.800 69.867 C 101.504 70.570,107.502 70.659,108.400 69.979 C 109.075 69.468,109.060 66.779,108.377 65.735 C 107.924 65.045,105.600 64.709,105.600 65.333 C 105.600 65.480,105.187 65.600,104.682 65.600 C 104.178 65.600,103.691 65.480,103.600 65.333 C 103.178 64.650,101.340 65.044,100.797 65.933 M115.041 84.295 C 114.691 84.682,114.533 85.251,114.533 86.133 C 114.533 87.015,114.691 87.584,115.041 87.972 C 115.543 88.527,115.542 88.533,114.957 88.533 C 113.051 88.533,111.618 92.155,113.021 93.425 C 113.935 94.253,120.392 94.063,120.963 93.192 C 122.283 91.177,119.861 87.231,118.253 88.777 C 117.792 89.220,115.733 89.239,115.733 88.800 C 115.733 88.653,116.289 88.533,116.969 88.533 C 119.226 88.533,120.332 86.078,118.813 84.439 C 117.945 83.503,115.831 83.422,115.041 84.295 M281.067 93.624 C 285.826 93.929,288.000 94.184,288.000 94.436 C 288.000 94.563,287.600 94.667,287.111 94.667 C 286.622 94.667,285.572 94.781,284.778 94.921 C 283.983 95.061,282.381 95.313,281.217 95.482 C 277.934 95.957,278.098 95.579,279.196 100.133 C 279.479 101.307,280.200 104.307,280.800 106.800 C 282.003 111.807,283.871 119.273,285.103 124.000 C 285.543 125.687,286.098 127.831,286.337 128.764 L 286.771 130.462 285.852 131.233 L 284.933 132.003 285.733 132.674 C 286.173 133.042,286.846 133.612,287.229 133.940 C 287.665 134.314,288.093 135.131,288.377 136.135 C 289.217 139.102,289.929 141.459,290.460 143.030 L 290.989 144.593 290.136 147.296 C 289.667 148.783,288.986 150.840,288.623 151.867 C 288.260 152.893,287.619 154.753,287.200 156.000 C 286.145 159.135,285.074 162.164,284.794 162.800 C 284.666 163.093,284.382 163.873,284.164 164.533 C 283.947 165.193,283.390 166.753,282.927 168.000 C 282.464 169.247,281.729 171.227,281.293 172.400 C 279.536 177.129,279.400 177.627,279.593 178.628 C 280.030 180.902,280.910 185.138,281.623 188.400 C 281.751 188.987,282.038 190.307,282.261 191.333 C 282.484 192.360,282.667 193.470,282.667 193.800 C 282.667 194.130,282.787 194.400,282.933 194.400 C 283.250 194.400,283.253 194.092,282.950 192.667 C 282.826 192.080,282.458 190.340,282.133 188.800 C 281.808 187.260,281.448 185.580,281.333 185.067 C 279.773 178.107,279.772 178.083,280.952 174.933 C 281.474 173.540,282.244 171.440,282.664 170.267 C 283.084 169.093,284.043 166.453,284.796 164.400 C 286.381 160.079,288.900 152.777,290.437 148.048 L 291.505 144.763 289.954 139.526 C 288.359 134.140,288.364 134.149,286.419 132.595 L 285.771 132.078 286.611 131.306 L 287.450 130.533 286.529 127.200 C 285.513 123.522,281.579 107.790,280.262 102.133 C 279.801 100.153,279.313 98.185,279.178 97.760 C 278.772 96.478,278.866 96.308,280.067 96.150 C 283.491 95.699,287.158 95.173,287.800 95.041 C 288.683 94.860,288.772 94.188,287.933 94.031 C 285.788 93.630,282.427 93.340,280.386 93.380 L 278.000 93.427 281.067 93.624 M252.133 95.207 C 251.693 95.328,250.613 95.569,249.733 95.744 C 246.090 96.466,245.825 96.619,244.348 98.871 C 231.944 117.782,230.842 121.178,235.099 127.363 L 236.037 128.726 234.805 130.631 C 232.709 133.871,231.624 136.432,231.512 138.401 L 231.414 140.135 234.612 146.934 C 236.370 150.674,239.633 157.513,241.862 162.133 C 246.334 171.402,245.930 170.092,246.678 177.733 C 247.451 185.614,247.874 188.627,248.226 188.743 C 248.509 188.837,248.523 188.747,248.293 188.315 C 248.132 188.014,248.000 187.285,248.000 186.695 C 248.000 186.105,247.886 184.747,247.748 183.678 C 247.609 182.608,247.354 180.293,247.181 178.533 C 246.370 170.280,246.406 170.430,244.033 165.514 C 242.841 163.047,241.867 160.994,241.867 160.951 C 241.867 160.908,240.547 158.157,238.933 154.836 C 237.320 151.515,236.000 148.755,236.000 148.702 C 236.000 148.650,235.174 146.879,234.164 144.767 C 231.104 138.371,231.186 137.361,235.305 130.832 C 236.781 128.493,236.802 128.929,235.087 126.366 C 231.610 121.169,232.865 117.403,243.454 101.243 C 246.344 96.833,246.505 96.681,248.800 96.218 C 249.460 96.085,250.540 95.865,251.200 95.729 C 251.860 95.594,252.940 95.375,253.600 95.242 C 254.729 95.014,254.745 95.000,253.867 94.994 C 253.353 94.991,252.573 95.087,252.133 95.207 M128.393 132.660 C 127.184 133.868,126.579 137.185,127.467 137.733 C 127.613 137.824,127.733 138.544,127.733 139.333 C 127.733 140.123,127.853 140.843,128.000 140.933 C 128.147 141.024,128.267 141.684,128.267 142.400 C 128.267 143.116,128.387 143.776,128.533 143.867 C 128.680 143.957,128.800 144.684,128.800 145.482 C 128.800 146.280,128.920 146.933,129.067 146.933 C 129.215 146.933,129.333 147.644,129.333 148.533 C 129.333 149.422,129.452 150.133,129.600 150.133 C 129.747 150.133,129.867 150.786,129.867 151.584 C 129.867 152.382,129.987 153.109,130.133 153.200 C 130.280 153.291,130.400 154.011,130.400 154.800 C 130.400 155.589,130.520 156.309,130.667 156.400 C 130.813 156.491,130.933 157.211,130.933 158.000 C 130.933 158.789,131.053 159.509,131.200 159.600 C 131.347 159.691,131.467 160.351,131.467 161.067 C 131.467 161.783,131.587 162.443,131.733 162.533 C 131.880 162.624,132.000 163.344,132.000 164.133 C 132.000 164.923,132.120 165.643,132.267 165.733 C 132.413 165.824,132.533 166.551,132.533 167.349 C 132.533 168.147,132.653 168.800,132.800 168.800 C 132.947 168.800,133.067 169.453,133.067 170.251 C 133.067 171.049,133.187 171.776,133.333 171.867 C 133.480 171.957,133.600 172.677,133.600 173.467 C 133.600 174.256,133.720 174.976,133.867 175.067 C 134.013 175.157,134.133 175.877,134.133 176.667 C 134.133 177.456,134.253 178.176,134.400 178.267 C 134.547 178.357,134.667 179.077,134.667 179.867 C 134.667 180.656,134.787 181.376,134.933 181.467 C 135.080 181.557,135.200 182.217,135.200 182.933 C 135.200 183.649,135.320 184.309,135.467 184.400 C 135.613 184.491,135.733 185.218,135.733 186.016 C 135.733 186.814,135.853 187.467,136.000 187.467 C 136.148 187.467,136.267 188.178,136.267 189.067 C 136.267 189.956,136.385 190.667,136.533 190.667 C 136.680 190.667,136.804 191.297,136.808 192.067 C 136.824 194.667,131.991 194.400,178.985 194.400 C 201.788 194.400,220.503 194.341,220.575 194.269 C 220.648 194.197,220.499 192.967,220.245 191.536 C 219.849 189.307,219.837 188.891,220.158 188.637 C 220.588 188.298,220.665 187.467,220.267 187.467 C 220.120 187.467,220.000 186.814,220.000 186.016 C 220.000 185.218,219.880 184.491,219.733 184.400 C 219.587 184.309,219.467 183.589,219.467 182.800 C 219.467 182.011,219.347 181.291,219.200 181.200 C 219.053 181.109,218.933 180.442,218.933 179.718 C 218.933 178.993,218.818 178.400,218.676 178.400 C 218.252 178.400,217.834 177.376,217.551 175.639 C 217.404 174.738,217.186 173.400,217.067 172.667 C 216.947 171.933,216.723 170.613,216.567 169.733 C 216.412 168.853,216.168 167.413,216.024 166.533 C 215.879 165.653,215.509 163.493,215.200 161.733 C 214.891 159.973,214.521 157.813,214.376 156.933 C 214.232 156.053,213.988 154.613,213.833 153.733 C 213.677 152.853,213.453 151.533,213.333 150.800 C 213.214 150.067,212.991 148.747,212.839 147.867 C 211.648 140.986,210.885 136.524,210.765 135.733 C 210.236 132.263,210.246 132.267,200.343 132.267 C 193.510 132.267,192.014 132.200,191.584 131.875 C 191.136 131.536,186.933 131.482,160.326 131.475 L 129.586 131.467 128.393 132.660 M173.733 154.771 C 179.735 157.616,179.872 166.315,173.961 169.207 C 166.868 172.678,159.686 165.321,163.238 158.223 C 165.029 154.644,170.010 153.005,173.733 154.771 M169.067 157.161 C 163.346 159.065,164.437 166.987,170.420 166.987 C 174.716 166.987,177.020 161.792,174.076 158.744 C 172.624 157.241,170.677 156.625,169.067 157.161 M255.465 191.679 L 255.597 194.533 255.675 191.890 C 255.718 190.436,255.659 189.152,255.544 189.036 C 255.428 188.919,255.393 190.109,255.465 191.679 M330.338 201.667 L 330.267 208.933 204.933 209.067 C 136.000 209.140,79.390 209.303,79.133 209.429 C 78.395 209.790,78.416 225.867,79.155 225.867 C 79.423 225.867,79.813 225.537,80.020 225.133 C 80.774 223.664,83.503 221.600,84.692 221.600 C 84.898 221.600,85.067 221.480,85.067 221.333 C 85.067 221.187,85.480 221.067,85.984 221.067 C 86.489 221.067,86.976 220.947,87.067 220.800 C 87.157 220.653,87.704 220.533,88.282 220.533 C 88.860 220.533,89.333 220.413,89.333 220.267 C 89.333 220.109,90.311 220.000,91.733 220.000 C 93.156 220.000,94.133 219.891,94.133 219.733 C 94.133 219.568,95.556 219.467,97.867 219.467 C 100.178 219.467,101.600 219.568,101.600 219.733 C 101.600 219.881,102.311 220.000,103.200 220.000 C 104.089 220.000,104.800 220.119,104.800 220.267 C 104.800 220.413,105.280 220.533,105.867 220.533 C 106.453 220.533,106.933 220.653,106.933 220.800 C 106.933 220.947,107.293 221.067,107.733 221.067 C 108.173 221.067,108.533 221.187,108.533 221.333 C 108.533 221.480,108.893 221.600,109.333 221.600 C 109.773 221.600,110.133 221.720,110.133 221.867 C 110.133 222.013,110.366 222.133,110.651 222.133 C 110.936 222.133,111.243 222.253,111.333 222.400 C 111.424 222.547,111.791 222.667,112.149 222.667 C 112.507 222.667,112.800 222.787,112.800 222.933 C 112.800 223.080,113.040 223.200,113.333 223.200 C 113.627 223.200,113.867 223.320,113.867 223.467 C 113.867 223.613,114.107 223.733,114.400 223.733 C 114.693 223.733,114.933 223.853,114.933 224.000 C 114.933 224.147,115.173 224.267,115.467 224.267 C 115.760 224.267,116.000 224.387,116.000 224.533 C 116.000 224.680,116.240 224.800,116.533 224.800 C 116.827 224.800,117.067 224.920,117.067 225.067 C 117.067 225.213,117.252 225.333,117.478 225.333 C 117.704 225.333,118.147 225.573,118.461 225.867 C 118.776 226.160,119.191 226.400,119.384 226.400 C 119.576 226.400,119.733 226.520,119.733 226.667 C 119.733 226.813,119.918 226.933,120.144 226.933 C 120.371 226.933,120.813 227.173,121.128 227.467 C 121.443 227.760,121.858 228.000,122.050 228.000 C 122.243 228.000,122.400 228.120,122.400 228.267 C 122.400 228.413,122.614 228.533,122.874 228.533 C 123.135 228.533,123.522 228.773,123.733 229.067 C 123.945 229.360,124.331 229.600,124.592 229.600 C 124.853 229.600,125.067 229.700,125.067 229.822 C 125.067 229.943,125.397 230.213,125.800 230.422 C 126.203 230.630,126.766 231.010,127.050 231.267 C 127.335 231.523,127.725 231.733,127.917 231.733 C 128.109 231.733,128.267 231.853,128.267 232.000 C 128.267 232.147,128.480 232.267,128.741 232.267 C 129.002 232.267,129.389 232.507,129.600 232.800 C 129.811 233.093,130.143 233.333,130.337 233.333 C 130.530 233.333,130.947 233.573,131.261 233.867 C 131.576 234.160,131.991 234.400,132.184 234.400 C 132.376 234.400,132.533 234.520,132.533 234.667 C 132.533 234.813,132.747 234.933,133.008 234.933 C 133.269 234.933,133.655 235.173,133.867 235.467 C 134.078 235.760,134.465 236.000,134.726 236.000 C 134.986 236.000,135.200 236.120,135.200 236.267 C 135.200 236.413,135.414 236.533,135.674 236.533 C 135.935 236.533,136.322 236.773,136.533 237.067 C 136.745 237.360,137.131 237.600,137.392 237.600 C 137.653 237.600,137.867 237.720,137.867 237.867 C 137.867 238.013,138.107 238.133,138.400 238.133 C 138.693 238.133,138.933 238.253,138.933 238.400 C 138.933 238.547,139.173 238.667,139.467 238.667 C 139.760 238.667,140.000 238.787,140.000 238.933 C 140.000 239.080,140.240 239.200,140.533 239.200 C 140.827 239.200,141.067 239.320,141.067 239.467 C 141.067 239.613,141.307 239.733,141.600 239.733 C 141.893 239.733,142.133 239.853,142.133 240.000 C 142.133 240.147,142.373 240.267,142.667 240.267 C 142.960 240.267,143.200 240.387,143.200 240.533 C 143.200 240.680,143.433 240.800,143.718 240.800 C 144.002 240.800,144.309 240.920,144.400 241.067 C 144.491 241.213,144.858 241.333,145.216 241.333 C 145.574 241.333,145.867 241.453,145.867 241.600 C 145.867 241.747,146.227 241.867,146.667 241.867 C 147.107 241.867,147.467 241.987,147.467 242.133 C 147.467 242.280,147.947 242.400,148.533 242.400 C 149.120 242.400,149.600 242.520,149.600 242.667 C 149.600 242.813,150.200 242.933,150.933 242.933 C 151.667 242.933,152.267 243.053,152.267 243.200 C 152.267 243.368,154.044 243.467,157.067 243.467 C 160.089 243.467,161.867 243.368,161.867 243.200 C 161.867 243.048,162.667 242.933,163.733 242.933 C 164.800 242.933,165.600 242.819,165.600 242.667 C 165.600 242.520,166.080 242.400,166.667 242.400 C 167.253 242.400,167.733 242.280,167.733 242.133 C 167.733 241.987,168.026 241.867,168.384 241.867 C 168.742 241.867,169.109 241.747,169.200 241.600 C 169.291 241.453,169.598 241.333,169.882 241.333 C 170.167 241.333,170.400 241.213,170.400 241.067 C 170.400 240.920,170.640 240.800,170.933 240.800 C 171.227 240.800,171.467 240.680,171.467 240.533 C 171.467 240.387,171.707 240.267,172.000 240.267 C 172.293 240.267,172.533 240.147,172.533 240.000 C 172.533 239.853,172.773 239.733,173.067 239.733 C 173.360 239.733,173.600 239.613,173.600 239.467 C 173.600 239.320,173.840 239.200,174.133 239.200 C 174.427 239.200,174.667 239.080,174.667 238.933 C 174.667 238.787,175.027 238.667,175.467 238.667 C 175.907 238.667,176.267 238.547,176.267 238.400 C 176.267 238.253,176.627 238.133,177.067 238.133 C 177.507 238.133,177.867 238.013,177.867 237.867 C 177.867 237.720,178.467 237.600,179.200 237.600 C 179.933 237.600,180.533 237.480,180.533 237.333 C 180.533 237.170,181.817 237.067,183.851 237.067 C 185.775 237.067,187.238 236.955,187.333 236.800 C 187.424 236.653,188.084 236.533,188.800 236.533 C 189.516 236.533,190.176 236.653,190.267 236.800 C 190.357 236.947,191.324 237.067,192.416 237.067 C 193.561 237.067,194.400 237.179,194.400 237.333 C 194.400 237.480,194.880 237.600,195.467 237.600 C 196.053 237.600,196.533 237.720,196.533 237.867 C 196.533 238.013,196.893 238.133,197.333 238.133 C 197.773 238.133,198.133 238.253,198.133 238.400 C 198.133 238.547,198.493 238.667,198.933 238.667 C 199.373 238.667,199.733 238.787,199.733 238.933 C 199.733 239.080,199.973 239.200,200.267 239.200 C 200.560 239.200,200.800 239.320,200.800 239.467 C 200.800 239.613,201.040 239.733,201.333 239.733 C 201.627 239.733,201.867 239.853,201.867 240.000 C 201.867 240.147,202.107 240.267,202.400 240.267 C 202.693 240.267,202.933 240.387,202.933 240.533 C 202.933 240.680,203.173 240.800,203.467 240.800 C 203.760 240.800,204.000 240.920,204.000 241.067 C 204.000 241.213,204.185 241.333,204.411 241.333 C 204.637 241.333,205.080 241.573,205.395 241.867 C 205.710 242.160,206.125 242.400,206.317 242.400 C 206.509 242.400,206.667 242.520,206.667 242.667 C 206.667 242.813,206.852 242.933,207.078 242.933 C 207.304 242.933,207.747 243.173,208.061 243.467 C 208.376 243.760,208.791 244.000,208.984 244.000 C 209.176 244.000,209.333 244.120,209.333 244.267 C 209.333 244.413,209.573 244.533,209.867 244.533 C 210.160 244.533,210.400 244.633,210.400 244.755 C 210.400 244.877,210.730 245.147,211.133 245.355 C 211.537 245.563,212.099 245.943,212.384 246.200 C 212.668 246.457,213.058 246.667,213.250 246.667 C 213.443 246.667,213.600 246.787,213.600 246.933 C 213.600 247.080,213.814 247.200,214.074 247.200 C 214.335 247.200,214.722 247.440,214.933 247.733 C 215.145 248.027,215.476 248.267,215.670 248.267 C 215.864 248.267,216.280 248.507,216.595 248.800 C 216.910 249.093,217.325 249.333,217.517 249.333 C 217.709 249.333,217.867 249.453,217.867 249.600 C 217.867 249.747,218.052 249.867,218.278 249.867 C 218.504 249.867,218.947 250.107,219.261 250.400 C 219.576 250.693,219.991 250.933,220.184 250.933 C 220.376 250.933,220.533 251.053,220.533 251.200 C 220.533 251.347,220.773 251.467,221.067 251.467 C 221.360 251.467,221.600 251.587,221.600 251.733 C 221.600 251.880,221.840 252.000,222.133 252.000 C 222.427 252.000,222.667 252.120,222.667 252.267 C 222.667 252.413,222.907 252.533,223.200 252.533 C 223.493 252.533,223.733 252.653,223.733 252.800 C 223.733 252.947,223.973 253.067,224.267 253.067 C 224.560 253.067,224.800 253.187,224.800 253.333 C 224.800 253.480,225.040 253.600,225.333 253.600 C 225.627 253.600,225.867 253.720,225.867 253.867 C 225.867 254.013,226.107 254.133,226.400 254.133 C 226.693 254.133,226.933 254.253,226.933 254.400 C 226.933 254.547,227.173 254.667,227.467 254.667 C 227.760 254.667,228.000 254.787,228.000 254.933 C 228.000 255.080,228.240 255.200,228.533 255.200 C 228.827 255.200,229.067 255.320,229.067 255.467 C 229.067 255.613,229.307 255.733,229.600 255.733 C 229.893 255.733,230.133 255.853,230.133 256.000 C 230.133 256.147,230.493 256.267,230.933 256.267 C 231.373 256.267,231.733 256.387,231.733 256.533 C 231.733 256.680,231.973 256.800,232.267 256.800 C 232.560 256.800,232.800 256.920,232.800 257.067 C 232.800 257.213,233.160 257.333,233.600 257.333 C 234.040 257.333,234.400 257.453,234.400 257.600 C 234.400 257.747,234.760 257.867,235.200 257.867 C 235.640 257.867,236.000 257.987,236.000 258.133 C 236.000 258.280,236.360 258.400,236.800 258.400 C 237.240 258.400,237.600 258.520,237.600 258.667 C 237.600 258.813,237.960 258.933,238.400 258.933 C 238.840 258.933,239.200 259.053,239.200 259.200 C 239.200 259.347,239.680 259.467,240.267 259.467 C 240.853 259.467,241.333 259.587,241.333 259.733 C 241.333 259.880,241.813 260.000,242.400 260.000 C 242.987 260.000,243.467 260.120,243.467 260.267 C 243.467 260.413,243.947 260.533,244.533 260.533 C 245.120 260.533,245.600 260.653,245.600 260.800 C 245.600 260.947,246.200 261.067,246.933 261.067 C 247.667 261.067,248.267 261.187,248.267 261.333 C 248.267 261.481,248.973 261.600,249.851 261.600 C 250.722 261.600,251.509 261.720,251.600 261.867 C 251.691 262.013,252.778 262.133,254.016 262.133 C 255.339 262.133,256.267 262.243,256.267 262.400 C 256.267 262.568,258.044 262.667,261.067 262.667 C 264.089 262.667,265.867 262.765,265.867 262.933 C 265.867 263.090,266.795 263.200,268.118 263.200 C 269.356 263.200,270.443 263.080,270.533 262.933 C 270.632 262.774,272.353 262.667,274.800 262.667 C 277.247 262.667,278.968 262.559,279.067 262.400 C 279.157 262.253,280.064 262.133,281.082 262.133 C 282.139 262.133,282.933 262.019,282.933 261.867 C 282.933 261.719,283.644 261.600,284.533 261.600 C 285.422 261.600,286.133 261.481,286.133 261.333 C 286.133 261.187,286.733 261.067,287.467 261.067 C 288.200 261.067,288.800 260.947,288.800 260.800 C 288.800 260.653,289.280 260.533,289.867 260.533 C 290.453 260.533,290.933 260.413,290.933 260.267 C 290.933 260.120,291.413 260.000,292.000 260.000 C 292.587 260.000,293.067 259.880,293.067 259.733 C 293.067 259.587,293.480 259.467,293.984 259.467 C 294.489 259.467,294.976 259.347,295.067 259.200 C 295.157 259.053,295.584 258.933,296.016 258.933 C 296.447 258.933,296.800 258.813,296.800 258.667 C 296.800 258.520,297.160 258.400,297.600 258.400 C 298.040 258.400,298.400 258.280,298.400 258.133 C 298.400 257.987,298.760 257.867,299.200 257.867 C 299.640 257.867,300.000 257.747,300.000 257.600 C 300.000 257.453,300.293 257.333,300.651 257.333 C 301.009 257.333,301.376 257.213,301.467 257.067 C 301.557 256.920,301.864 256.800,302.149 256.800 C 302.434 256.800,302.667 256.680,302.667 256.533 C 302.667 256.387,303.027 256.267,303.467 256.267 C 303.907 256.267,304.267 256.147,304.267 256.000 C 304.267 255.853,304.507 255.733,304.800 255.733 C 305.093 255.733,305.333 255.613,305.333 255.467 C 305.333 255.320,305.626 255.200,305.984 255.200 C 306.342 255.200,306.709 255.080,306.800 254.933 C 306.891 254.787,307.198 254.667,307.482 254.667 C 307.767 254.667,308.000 254.547,308.000 254.400 C 308.000 254.253,308.240 254.133,308.533 254.133 C 308.827 254.133,309.067 254.013,309.067 253.867 C 309.067 253.720,309.307 253.600,309.600 253.600 C 309.893 253.600,310.133 253.480,310.133 253.333 C 310.133 253.187,310.373 253.067,310.667 253.067 C 310.960 253.067,311.200 252.947,311.200 252.800 C 311.200 252.653,311.440 252.533,311.733 252.533 C 312.027 252.533,312.267 252.413,312.267 252.267 C 312.267 252.120,312.507 252.000,312.800 252.000 C 313.093 252.000,313.333 251.880,313.333 251.733 C 313.333 251.587,313.573 251.467,313.867 251.467 C 314.160 251.467,314.400 251.347,314.400 251.200 C 314.400 251.053,314.557 250.933,314.750 250.933 C 314.942 250.933,315.357 250.693,315.672 250.400 C 315.987 250.107,316.429 249.867,316.656 249.867 C 316.882 249.867,317.067 249.747,317.067 249.600 C 317.067 249.453,317.280 249.333,317.541 249.333 C 317.802 249.333,318.189 249.093,318.400 248.800 C 318.611 248.507,318.998 248.267,319.259 248.267 C 319.520 248.267,319.733 248.167,319.733 248.045 C 319.733 247.923,320.063 247.653,320.467 247.445 C 320.870 247.237,321.433 246.857,321.717 246.600 C 322.001 246.343,322.336 246.133,322.461 246.133 C 322.587 246.133,322.947 245.893,323.261 245.600 C 323.576 245.307,323.991 245.067,324.184 245.067 C 324.376 245.067,324.533 244.973,324.533 244.857 C 324.533 244.742,324.889 244.438,325.324 244.181 C 325.758 243.925,326.268 243.565,326.457 243.382 C 326.646 243.199,327.220 242.759,327.733 242.404 C 328.247 242.049,328.847 241.567,329.067 241.333 C 329.287 241.099,329.887 240.619,330.400 240.267 C 330.913 239.914,331.513 239.437,331.733 239.208 C 331.953 238.978,332.790 238.253,333.594 237.595 C 335.455 236.072,342.243 229.274,343.457 227.717 C 343.965 227.066,344.475 226.493,344.590 226.444 C 344.706 226.396,344.800 222.646,344.800 218.111 L 344.800 209.867 353.333 209.867 L 361.867 209.867 361.867 202.133 L 361.867 194.400 346.138 194.400 L 330.409 194.400 330.338 201.667 " stroke="none" fill="#89a3f7" fill-rule="evenodd"></path><path id="path3" d="M166.130 36.600 C 163.890 40.274,170.339 47.139,174.123 45.109 C 175.344 44.454,175.375 44.218,174.386 43.092 C 173.425 41.998,172.697 41.886,171.830 42.701 L 171.226 43.269 169.613 41.656 C 167.838 39.881,167.753 39.673,168.533 39.005 C 169.266 38.378,169.204 37.889,168.247 36.727 C 167.242 35.507,166.812 35.482,166.130 36.600 M248.931 44.471 C 244.159 49.056,241.493 50.693,237.533 51.470 L 236.000 51.771 236.000 57.337 C 236.000 60.759,236.103 62.965,236.267 63.067 C 236.413 63.157,236.533 64.064,236.533 65.082 C 236.533 66.139,236.648 66.933,236.800 66.933 C 236.947 66.933,237.067 67.533,237.067 68.267 C 237.067 69.000,237.187 69.600,237.333 69.600 C 237.480 69.600,237.600 70.080,237.600 70.667 C 237.600 71.253,237.720 71.733,237.867 71.733 C 238.013 71.733,238.133 72.093,238.133 72.533 C 238.133 72.973,238.253 73.333,238.400 73.333 C 238.547 73.333,238.667 73.650,238.667 74.037 C 238.667 74.511,238.971 75.000,239.600 75.537 C 240.113 75.976,240.533 76.450,240.533 76.590 C 240.533 77.169,243.383 80.913,244.515 81.822 C 245.185 82.360,245.793 82.877,245.867 82.971 C 246.445 83.715,249.599 84.886,251.426 85.035 C 253.795 85.228,253.451 84.547,254.709 91.538 C 255.060 93.494,254.942 94.359,253.532 100.133 C 251.724 107.540,251.862 110.978,254.109 114.484 C 257.155 119.238,264.466 113.489,274.391 98.533 C 275.753 96.480,277.149 94.498,277.492 94.128 C 278.107 93.465,278.110 93.436,277.712 91.730 C 277.264 89.811,277.287 87.699,277.745 88.682 C 279.364 92.161,279.379 92.164,288.133 90.842 L 290.267 90.519 290.493 86.660 C 290.642 84.114,290.619 81.892,290.425 80.133 C 290.263 78.667,290.131 77.069,290.132 76.583 C 290.133 75.733,288.651 72.227,288.213 72.044 C 288.096 71.996,288.000 71.843,288.000 71.705 C 288.000 70.924,281.753 63.720,279.900 62.365 C 278.341 61.226,277.872 61.976,278.946 63.890 C 279.706 65.243,279.478 65.269,277.828 64.018 C 275.358 62.146,274.856 62.662,276.387 65.496 C 276.893 66.433,277.203 67.200,277.076 67.200 C 276.948 67.200,276.804 67.106,276.756 66.990 C 276.563 66.536,274.904 65.567,274.465 65.652 C 273.954 65.752,273.949 67.046,274.459 67.667 C 274.812 68.098,274.260 68.800,273.567 68.800 C 273.206 68.800,273.067 68.993,273.067 69.495 C 273.067 71.506,266.036 77.818,261.393 79.977 C 260.238 80.514,259.981 80.763,259.847 81.479 C 259.009 85.947,252.493 86.074,251.641 81.639 C 250.875 77.652,255.478 74.864,258.516 77.474 C 259.428 78.258,259.284 78.242,260.493 77.683 C 263.602 76.244,269.218 71.416,271.068 68.591 L 271.816 67.449 271.133 66.724 C 269.869 65.384,269.292 64.003,269.137 61.948 C 269.056 60.877,268.908 60.000,268.808 60.000 C 267.842 60.000,260.384 53.359,256.533 49.071 C 255.287 47.682,254.122 46.391,253.946 46.200 C 253.770 46.010,253.062 45.137,252.373 44.260 C 250.855 42.327,251.183 42.307,248.931 44.471 M166.276 60.523 C 163.435 63.662,170.045 71.299,173.979 69.423 C 175.581 68.659,175.351 67.378,173.448 66.471 C 172.551 66.043,172.510 66.048,172.113 66.615 C 171.553 67.414,171.212 67.356,169.908 66.240 C 168.263 64.832,167.750 63.742,168.498 63.246 C 169.285 62.723,169.210 62.048,168.239 60.943 C 167.292 59.864,166.940 59.789,166.276 60.523 M276.101 79.303 C 276.683 80.529,276.713 82.880,276.133 81.867 C 275.924 81.500,275.748 80.697,275.743 80.082 C 275.738 79.468,275.613 78.891,275.467 78.800 C 275.320 78.709,275.200 78.515,275.200 78.369 C 275.200 77.894,275.657 78.368,276.101 79.303 M178.527 84.372 C 177.061 86.610,178.787 90.279,182.386 92.577 C 184.974 94.229,188.685 92.944,186.892 91.016 C 185.890 89.938,185.095 89.747,184.385 90.414 C 183.643 91.111,183.220 90.927,181.650 89.223 C 180.497 87.973,180.237 87.104,180.933 86.837 C 181.552 86.600,181.407 85.462,180.643 84.554 C 179.814 83.569,179.094 83.507,178.527 84.372 M197.533 94.287 C 197.423 94.398,197.333 94.989,197.333 95.600 C 197.333 96.479,197.145 96.929,196.431 97.756 L 195.529 98.800 188.719 98.933 C 184.974 99.007,181.820 99.157,181.711 99.267 C 181.601 99.377,181.681 99.471,181.889 99.476 C 182.738 99.497,183.997 103.013,183.823 104.877 C 183.716 106.025,183.763 106.653,183.965 106.778 C 184.131 106.881,184.267 107.274,184.267 107.651 C 184.267 108.029,184.477 108.533,184.733 108.772 C 184.990 109.012,185.328 109.438,185.484 109.719 C 185.641 110.001,185.999 110.359,186.281 110.516 C 186.562 110.672,186.988 111.010,187.228 111.267 C 187.467 111.523,187.858 111.733,188.098 111.733 C 188.337 111.733,188.533 111.837,188.533 111.964 C 188.533 112.311,190.792 112.550,191.649 112.292 C 192.062 112.168,193.060 111.926,193.867 111.754 C 195.632 111.377,197.058 111.063,198.667 110.698 C 199.327 110.549,200.527 110.278,201.333 110.096 C 202.140 109.915,202.950 109.654,203.133 109.517 C 203.529 109.221,203.583 108.000,203.200 108.000 C 203.053 108.000,202.933 107.640,202.933 107.200 C 202.933 106.760,202.813 106.400,202.667 106.400 C 202.520 106.400,202.400 106.107,202.400 105.749 C 202.400 105.391,202.280 105.024,202.133 104.933 C 201.987 104.843,201.867 104.536,201.867 104.251 C 201.867 103.966,201.747 103.733,201.600 103.733 C 201.453 103.733,201.333 103.433,201.333 103.067 C 201.333 102.700,201.213 102.400,201.067 102.400 C 200.920 102.400,200.800 102.241,200.800 102.047 C 200.800 101.853,200.458 100.983,200.039 100.114 C 198.659 97.246,197.976 95.547,197.815 94.576 C 197.770 94.306,197.643 94.176,197.533 94.287 M107.800 99.384 C 108.057 99.451,108.477 99.451,108.733 99.384 C 108.990 99.317,108.780 99.262,108.267 99.262 C 107.753 99.262,107.543 99.317,107.800 99.384 M203.230 114.155 C 202.586 114.281,201.996 114.448,201.919 114.526 C 201.622 114.822,203.371 114.625,204.133 114.276 C 205.051 113.856,204.873 113.832,203.230 114.155 M199.600 114.933 C 199.145 115.129,199.185 115.163,199.867 115.163 C 200.307 115.163,200.907 115.059,201.200 114.933 C 201.655 114.738,201.615 114.704,200.933 114.704 C 200.493 114.704,199.893 114.807,199.600 114.933 M196.933 115.467 C 196.479 115.662,196.518 115.696,197.200 115.696 C 197.640 115.696,198.240 115.593,198.533 115.467 C 198.988 115.271,198.949 115.237,198.267 115.237 C 197.827 115.237,197.227 115.341,196.933 115.467 M194.267 116.000 C 193.812 116.195,193.851 116.229,194.533 116.229 C 194.973 116.229,195.573 116.126,195.867 116.000 C 196.321 115.805,196.282 115.771,195.600 115.771 C 195.160 115.771,194.560 115.874,194.267 116.000 M191.600 116.533 C 191.145 116.729,191.185 116.763,191.867 116.763 C 192.307 116.763,192.907 116.659,193.200 116.533 C 193.655 116.338,193.615 116.304,192.933 116.304 C 192.493 116.304,191.893 116.407,191.600 116.533 " stroke="none" fill="#f8af82" fill-rule="evenodd"></path><path id="path4" d="M251.467 30.905 C 251.467 31.036,251.767 31.126,252.133 31.105 C 253.002 31.055,253.002 30.667,252.133 30.667 C 251.767 30.667,251.467 30.774,251.467 30.905 M260.933 30.933 C 261.670 31.250,262.133 31.250,262.133 30.933 C 262.133 30.787,261.743 30.675,261.267 30.685 C 260.540 30.701,260.486 30.741,260.933 30.933 M268.851 33.620 C 268.904 33.778,269.061 33.907,269.200 33.907 C 269.339 33.907,269.496 33.778,269.549 33.620 C 269.601 33.462,269.444 33.333,269.200 33.333 C 268.956 33.333,268.799 33.462,268.851 33.620 M271.699 35.781 C 272.154 36.247,272.601 36.554,272.692 36.464 C 272.901 36.255,271.596 34.933,271.180 34.933 C 271.010 34.933,271.243 35.315,271.699 35.781 M241.106 35.894 C 240.908 36.118,240.799 36.355,240.864 36.419 C 240.928 36.484,241.199 36.296,241.465 36.002 C 241.731 35.707,241.841 35.471,241.708 35.477 C 241.575 35.482,241.305 35.670,241.106 35.894 M239.506 37.494 C 239.020 38.044,239.333 38.305,239.854 37.784 C 240.081 37.557,240.267 37.303,240.267 37.219 C 240.267 36.939,239.871 37.082,239.506 37.494 M275.235 38.778 C 276.169 39.719,276.971 40.384,277.018 40.257 C 277.127 39.960,274.245 37.067,273.841 37.067 C 273.673 37.067,274.301 37.837,275.235 38.778 M238.133 39.733 C 238.133 40.027,238.013 40.267,237.867 40.267 C 237.720 40.267,237.605 40.537,237.611 40.867 C 237.621 41.379,237.697 41.330,238.133 40.533 C 238.721 39.460,238.773 39.200,238.400 39.200 C 238.253 39.200,238.133 39.440,238.133 39.733 M277.367 41.266 C 278.057 42.143,278.426 42.463,278.574 42.315 C 278.656 42.233,278.416 41.858,278.040 41.483 C 277.265 40.708,276.814 40.562,277.367 41.266 M248.043 44.612 C 245.603 46.947,241.732 49.867,241.075 49.867 C 240.920 49.867,240.524 50.005,240.196 50.175 C 239.868 50.345,239.392 50.585,239.137 50.708 C 238.882 50.832,238.139 50.933,237.486 50.933 C 236.443 50.933,235.723 51.279,236.062 51.618 C 236.308 51.863,239.412 51.086,240.983 50.385 C 243.618 49.209,245.212 48.026,248.950 44.467 C 251.219 42.306,250.855 42.328,252.373 44.260 C 253.062 45.137,253.770 46.010,253.946 46.200 C 254.122 46.391,255.287 47.682,256.533 49.071 C 260.618 53.620,267.875 60.022,268.913 59.992 C 269.220 59.983,268.684 59.499,266.259 57.600 C 262.719 54.827,257.441 49.570,253.522 44.912 C 250.761 41.631,251.137 41.652,248.043 44.612 M279.467 44.428 C 279.467 44.517,279.737 44.921,280.067 45.326 C 280.397 45.731,280.810 46.288,280.984 46.564 C 281.274 47.023,281.303 47.026,281.318 46.600 C 281.326 46.343,281.213 46.133,281.067 46.133 C 280.920 46.133,280.800 45.937,280.800 45.698 C 280.800 45.458,280.542 45.038,280.226 44.765 C 279.615 44.235,279.467 44.169,279.467 44.428 M236.000 46.267 C 236.000 47.135,236.388 47.135,236.438 46.266 C 236.460 45.900,236.370 45.600,236.238 45.600 C 236.107 45.600,236.000 45.900,236.000 46.267 M282.002 48.733 C 282.107 48.990,282.254 49.410,282.328 49.667 C 282.492 50.237,282.933 50.286,282.933 49.733 C 282.933 49.513,282.813 49.333,282.667 49.333 C 282.520 49.333,282.400 49.093,282.400 48.800 C 282.400 48.507,282.267 48.267,282.105 48.267 C 281.928 48.267,281.887 48.454,282.002 48.733 M283.200 51.692 C 283.200 52.170,283.519 52.800,283.762 52.800 C 284.131 52.800,284.043 52.272,283.600 51.829 C 283.380 51.609,283.200 51.547,283.200 51.692 M284.533 55.733 C 284.690 56.027,284.875 56.267,284.943 56.267 C 285.011 56.267,285.067 56.027,285.067 55.733 C 285.067 55.432,284.889 55.200,284.657 55.200 C 284.331 55.200,284.306 55.308,284.533 55.733 M285.097 57.673 C 285.539 58.523,285.600 58.555,285.600 57.940 C 285.600 57.638,285.417 57.320,285.194 57.235 C 284.852 57.104,284.837 57.173,285.097 57.673 M277.920 61.387 C 277.531 61.775,277.501 62.574,277.867 62.800 C 278.013 62.891,278.133 63.096,278.133 63.257 C 278.133 63.418,277.914 63.351,277.646 63.108 C 277.377 62.865,276.981 62.667,276.766 62.667 C 276.550 62.667,276.234 62.528,276.065 62.358 C 275.183 61.476,274.578 63.477,275.364 64.676 C 275.969 65.599,276.365 65.498,275.874 64.547 C 274.967 62.793,275.614 62.459,277.459 63.728 C 278.629 64.533,279.431 64.254,278.651 63.314 C 278.203 62.774,278.445 61.719,278.996 61.811 C 279.317 61.864,279.410 61.763,279.301 61.477 C 279.113 60.988,278.368 60.939,277.920 61.387 M285.871 62.314 C 285.878 62.723,286.370 63.319,286.551 63.138 C 286.649 63.040,286.536 62.764,286.298 62.527 C 286.061 62.290,285.869 62.194,285.871 62.314 M283.421 65.800 C 283.860 66.350,284.441 67.040,284.712 67.333 C 285.704 68.410,288.000 71.463,288.000 71.705 C 288.000 71.843,288.096 71.996,288.213 72.044 C 288.651 72.227,290.133 75.733,290.132 76.583 C 290.131 77.069,290.263 78.667,290.425 80.133 C 290.619 81.892,290.642 84.114,290.493 86.660 L 290.267 90.519 288.133 90.842 C 279.377 92.165,279.376 92.165,277.743 88.682 C 277.299 87.735,277.262 90.090,277.700 91.467 L 278.081 92.667 278.107 91.610 L 278.133 90.553 278.867 91.419 L 279.600 92.285 282.400 91.993 C 283.940 91.832,286.225 91.605,287.478 91.489 C 288.732 91.373,290.029 91.132,290.362 90.954 L 290.967 90.630 290.833 84.048 C 290.688 76.884,290.505 74.652,290.037 74.313 C 289.814 74.151,289.821 74.057,290.067 73.957 C 290.589 73.746,290.457 73.333,289.867 73.333 C 289.573 73.333,289.333 73.213,289.333 73.067 C 289.333 72.920,289.453 72.800,289.600 72.800 C 289.747 72.800,289.867 72.680,289.867 72.533 C 289.867 72.387,289.627 72.267,289.333 72.267 C 289.037 72.267,288.800 72.089,288.800 71.867 C 288.800 71.647,288.680 71.467,288.533 71.467 C 288.387 71.467,288.267 71.297,288.267 71.089 C 288.267 70.881,288.177 70.671,288.067 70.622 C 287.957 70.573,287.448 69.993,286.937 69.333 C 285.405 67.356,285.242 67.157,284.166 65.955 C 282.899 64.539,282.317 64.418,283.421 65.800 M287.200 66.784 C 287.200 66.996,287.320 67.243,287.467 67.333 C 287.613 67.424,287.733 67.251,287.733 66.949 C 287.733 66.647,287.613 66.400,287.467 66.400 C 287.320 66.400,287.200 66.573,287.200 66.784 M270.690 69.064 C 267.872 72.934,260.374 78.725,259.156 77.973 C 258.968 77.857,258.924 77.902,259.041 78.092 C 259.300 78.511,259.981 78.476,260.897 77.998 C 261.317 77.779,261.768 77.600,261.900 77.600 C 262.944 77.600,269.835 71.461,271.229 69.288 C 272.452 67.382,272.040 67.212,270.690 69.064 M287.467 67.957 C 287.467 68.071,287.643 68.398,287.858 68.682 C 288.242 69.189,288.250 69.188,288.258 68.629 C 288.263 68.314,288.087 67.988,287.867 67.904 C 287.647 67.819,287.467 67.843,287.467 67.957 M272.587 68.853 C 272.411 69.029,272.267 69.427,272.267 69.736 C 272.267 70.784,265.474 77.600,264.429 77.600 C 264.354 77.600,263.777 77.942,263.147 78.360 C 262.516 78.778,261.616 79.284,261.147 79.486 C 260.288 79.854,259.490 80.913,259.822 81.244 C 259.920 81.342,260.000 81.243,260.000 81.023 C 260.000 80.803,260.622 80.336,261.389 79.979 C 266.010 77.831,273.067 71.507,273.067 69.513 C 273.067 69.024,273.233 68.805,273.667 68.722 C 274.220 68.615,274.214 68.603,273.587 68.570 C 273.213 68.550,272.763 68.677,272.587 68.853 M288.104 69.752 C 288.193 69.986,288.267 70.227,288.267 70.288 C 288.267 70.350,288.387 70.400,288.533 70.400 C 288.968 70.400,288.837 69.671,288.370 69.492 C 288.056 69.371,287.984 69.441,288.104 69.752 M184.454 74.808 C 184.170 75.199,183.709 75.467,183.321 75.467 C 182.961 75.467,182.667 75.587,182.667 75.733 C 182.667 75.910,169.472 76.000,143.615 76.000 L 104.563 76.000 102.948 77.585 C 102.060 78.457,101.333 79.357,101.333 79.585 C 101.333 79.813,101.213 80.000,101.067 80.000 C 100.920 80.000,100.800 80.360,100.800 80.800 C 100.800 81.240,100.680 81.600,100.533 81.600 C 100.387 81.600,100.267 82.080,100.267 82.667 C 100.267 83.253,100.147 83.733,100.000 83.733 C 99.829 83.733,99.733 86.133,99.733 90.400 C 99.733 94.667,99.829 97.067,100.000 97.067 C 100.147 97.067,100.267 97.667,100.267 98.400 C 100.267 99.133,100.387 99.733,100.533 99.733 C 100.680 99.733,100.800 99.973,100.800 100.267 C 100.800 100.560,100.920 100.800,101.067 100.800 C 101.213 100.800,101.333 101.040,101.333 101.333 C 101.333 101.627,101.453 101.867,101.600 101.867 C 101.747 101.867,101.867 102.050,101.867 102.274 C 101.867 102.803,104.130 105.067,104.660 105.067 C 104.884 105.067,105.067 105.187,105.067 105.333 C 105.067 105.480,105.307 105.600,105.600 105.600 C 105.893 105.600,106.133 105.720,106.133 105.867 C 106.133 106.013,106.493 106.133,106.933 106.133 C 107.373 106.133,107.733 106.253,107.733 106.400 C 107.733 106.547,108.333 106.667,109.067 106.667 C 109.800 106.667,110.400 106.787,110.400 106.933 C 110.400 107.110,122.900 107.200,147.366 107.200 C 180.426 107.200,184.296 107.157,183.995 106.794 C 183.761 106.512,183.709 105.902,183.826 104.785 C 183.977 103.346,183.906 102.994,183.130 101.334 L 182.267 99.485 144.774 99.476 C 103.289 99.466,106.337 99.597,104.931 97.754 L 104.267 96.883 104.267 88.735 L 104.267 80.587 105.227 79.627 L 106.187 78.667 150.901 78.667 L 195.616 78.667 196.574 79.598 C 197.828 80.816,197.867 81.085,197.867 88.687 C 197.867 92.932,197.972 95.433,198.171 95.921 C 198.770 97.389,199.290 98.558,200.039 100.114 C 200.458 100.983,200.800 101.853,200.800 102.047 C 200.800 102.241,200.920 102.400,201.067 102.400 C 201.213 102.400,201.333 102.700,201.333 103.067 C 201.333 103.433,201.453 103.733,201.600 103.733 C 201.747 103.733,201.867 103.922,201.867 104.152 C 201.867 104.525,201.911 104.527,202.267 104.171 C 202.487 103.951,202.667 103.631,202.667 103.459 C 202.667 103.288,203.027 102.811,203.467 102.400 C 203.959 101.940,204.267 101.386,204.267 100.960 C 204.267 100.579,204.387 100.267,204.533 100.267 C 204.680 100.267,204.800 99.907,204.800 99.467 C 204.800 99.027,204.920 98.667,205.067 98.667 C 205.228 98.667,205.333 97.511,205.333 95.733 C 205.333 93.956,205.438 92.800,205.600 92.800 C 205.756 92.800,205.867 91.911,205.867 90.667 C 205.867 89.422,205.756 88.533,205.600 88.533 C 205.438 88.533,205.333 87.378,205.333 85.600 C 205.333 83.822,205.228 82.667,205.067 82.667 C 204.920 82.667,204.800 82.307,204.800 81.867 C 204.800 81.427,204.680 81.067,204.533 81.067 C 204.387 81.067,204.267 80.733,204.267 80.326 C 204.267 79.890,204.047 79.426,203.733 79.200 C 203.440 78.989,203.200 78.658,203.200 78.466 C 203.200 77.980,201.441 76.267,200.942 76.267 C 200.717 76.267,200.533 76.147,200.533 76.000 C 200.533 75.853,200.293 75.733,200.000 75.733 C 199.707 75.733,199.467 75.613,199.467 75.467 C 199.467 75.320,199.227 75.200,198.933 75.200 C 198.640 75.200,198.400 75.080,198.400 74.933 C 198.400 74.787,197.920 74.667,197.333 74.667 C 196.747 74.667,196.267 74.547,196.267 74.400 C 196.267 74.230,194.206 74.136,190.600 74.142 L 184.933 74.150 184.454 74.808 M239.715 76.241 C 240.018 76.667,240.267 77.096,240.267 77.193 C 240.267 78.118,243.785 82.037,245.867 83.432 C 248.277 85.047,249.736 85.600,251.582 85.600 C 253.169 85.600,253.161 85.588,253.510 88.533 C 253.588 89.193,253.760 89.847,253.893 89.987 C 254.025 90.126,254.133 90.742,254.133 91.356 C 254.133 91.970,254.309 92.876,254.523 93.369 L 254.912 94.267 254.923 93.420 C 254.929 92.955,254.806 91.935,254.649 91.154 C 254.493 90.372,254.244 89.073,254.096 88.267 C 253.489 84.962,253.703 85.221,251.426 85.035 C 249.599 84.886,246.445 83.715,245.867 82.971 C 245.793 82.877,245.185 82.360,244.515 81.822 C 243.391 80.919,240.533 77.170,240.533 76.598 C 240.533 76.313,239.656 75.467,239.361 75.467 C 239.252 75.467,239.412 75.815,239.715 76.241 M238.173 76.701 C 237.828 77.068,237.597 77.419,237.659 77.482 C 237.721 77.544,238.116 77.236,238.536 76.797 C 238.956 76.359,239.187 76.007,239.050 76.016 C 238.912 76.025,238.518 76.333,238.173 76.701 M292.000 76.676 C 292.000 76.948,293.903 78.719,294.044 78.578 C 294.123 78.500,293.759 78.008,293.236 77.484 C 292.328 76.577,292.000 76.362,292.000 76.676 M275.200 78.369 C 275.200 78.515,275.320 78.709,275.467 78.800 C 275.613 78.891,275.738 79.468,275.743 80.082 C 275.748 80.697,275.924 81.500,276.133 81.867 C 276.713 82.880,276.683 80.529,276.101 79.303 C 275.657 78.368,275.200 77.894,275.200 78.369 M234.933 80.800 C 234.933 81.093,234.813 81.333,234.667 81.333 C 234.520 81.333,234.405 81.603,234.411 81.933 C 234.421 82.445,234.497 82.397,234.933 81.600 C 235.521 80.527,235.573 80.267,235.200 80.267 C 235.053 80.267,234.933 80.507,234.933 80.800 M299.882 82.258 C 300.552 82.765,300.822 82.768,300.630 82.267 C 300.545 82.047,300.226 81.867,299.921 81.867 C 299.375 81.867,299.374 81.874,299.882 82.258 M301.451 82.808 C 302.115 83.311,302.425 83.307,302.230 82.800 C 302.145 82.580,301.819 82.404,301.505 82.408 C 300.945 82.417,300.944 82.425,301.451 82.808 M258.646 83.367 C 258.291 83.753,257.640 84.228,257.200 84.424 C 256.760 84.619,256.580 84.783,256.800 84.789 C 257.395 84.803,258.857 83.841,259.192 83.214 C 259.586 82.479,259.424 82.525,258.646 83.367 M233.871 83.533 C 233.874 84.019,233.924 84.057,234.133 83.733 C 234.467 83.216,234.467 82.933,234.133 82.933 C 233.987 82.933,233.869 83.203,233.871 83.533 M233.667 84.949 C 233.483 85.148,233.338 85.526,233.344 85.789 C 233.352 86.135,233.468 86.058,233.765 85.510 C 234.222 84.666,234.175 84.397,233.667 84.949 M308.667 84.800 C 308.757 84.947,309.004 85.067,309.216 85.067 C 309.427 85.067,309.600 84.947,309.600 84.800 C 309.600 84.653,309.353 84.533,309.051 84.533 C 308.749 84.533,308.576 84.653,308.667 84.800 M314.667 86.933 C 314.667 87.080,314.847 87.200,315.067 87.200 C 315.287 87.200,315.467 87.080,315.467 86.933 C 315.467 86.787,315.287 86.667,315.067 86.667 C 314.847 86.667,314.667 86.787,314.667 86.933 M233.333 88.251 C 233.333 88.553,233.453 88.800,233.600 88.800 C 233.747 88.800,233.867 88.627,233.867 88.416 C 233.867 88.204,233.747 87.957,233.600 87.867 C 233.453 87.776,233.333 87.949,233.333 88.251 M316.267 87.834 C 316.267 87.889,316.447 88.084,316.667 88.267 C 316.994 88.539,317.067 88.520,317.067 88.166 C 317.067 87.928,316.887 87.733,316.667 87.733 C 316.447 87.733,316.267 87.779,316.267 87.834 M317.333 88.469 C 317.333 88.747,318.418 89.404,318.591 89.231 C 318.774 89.048,317.986 88.267,317.619 88.267 C 317.462 88.267,317.333 88.358,317.333 88.469 M319.200 90.002 C 319.200 90.077,319.560 90.515,320.000 90.975 C 320.440 91.436,320.800 91.915,320.800 92.040 C 320.800 92.164,320.920 92.267,321.067 92.267 C 321.576 92.267,321.328 91.710,320.409 90.791 C 319.532 89.914,319.200 89.697,319.200 90.002 M234.404 91.400 C 234.402 91.730,234.520 92.000,234.667 92.000 C 235.001 92.000,235.001 91.717,234.667 91.200 C 234.458 90.877,234.407 90.915,234.404 91.400 M235.467 93.219 C 235.467 93.501,236.226 94.133,236.565 94.133 C 236.756 94.133,236.654 93.904,236.328 93.600 C 235.752 93.063,235.467 92.937,235.467 93.219 M322.400 95.051 C 322.400 95.262,322.520 95.509,322.667 95.600 C 322.813 95.691,322.933 95.518,322.933 95.216 C 322.933 94.914,322.813 94.667,322.667 94.667 C 322.520 94.667,322.400 94.840,322.400 95.051 M324.267 101.867 C 324.784 102.201,325.067 102.201,325.067 101.867 C 325.067 101.720,324.797 101.602,324.467 101.604 C 323.981 101.607,323.943 101.658,324.267 101.867 M328.267 103.872 C 328.267 104.141,331.240 106.982,331.378 106.844 C 331.454 106.768,330.848 106.037,330.031 105.219 C 328.633 103.821,328.267 103.542,328.267 103.872 M333.604 111.400 C 333.616 111.985,334.125 112.372,334.129 111.800 C 334.131 111.470,334.013 111.200,333.867 111.200 C 333.720 111.200,333.602 111.290,333.604 111.400 M204.897 113.731 C 204.739 114.145,203.901 114.418,201.200 114.936 C 200.320 115.105,199.120 115.344,198.533 115.467 C 197.947 115.590,196.747 115.830,195.867 116.000 C 194.987 116.170,193.787 116.422,193.200 116.558 C 191.936 116.852,190.850 116.879,189.676 116.646 C 188.499 116.412,188.000 116.968,188.000 118.514 C 188.000 119.185,188.120 119.733,188.267 119.733 C 188.413 119.733,188.533 120.333,188.533 121.067 C 188.533 121.800,188.653 122.400,188.800 122.400 C 188.947 122.400,189.067 122.880,189.067 123.467 C 189.067 124.053,189.187 124.533,189.333 124.533 C 189.480 124.533,189.600 125.013,189.600 125.600 C 189.600 126.187,189.720 126.667,189.867 126.667 C 190.013 126.667,190.133 127.147,190.133 127.733 C 190.133 128.320,190.253 128.800,190.400 128.800 C 190.547 128.800,190.667 129.225,190.667 129.744 C 190.667 131.854,190.645 131.849,200.394 132.000 L 209.025 132.133 209.713 132.780 C 210.468 133.490,210.835 134.504,211.217 136.933 C 211.355 137.813,211.583 139.193,211.723 140.000 C 211.864 140.807,212.097 142.187,212.242 143.067 C 212.387 143.947,212.758 146.107,213.067 147.867 C 213.376 149.627,213.738 151.727,213.871 152.533 C 214.151 154.222,214.605 156.873,214.944 158.800 C 215.073 159.533,215.297 160.853,215.442 161.733 C 215.587 162.613,215.958 164.773,216.267 166.533 C 216.576 168.293,216.942 170.423,217.081 171.267 C 217.895 176.210,218.270 178.092,218.482 178.304 C 218.677 178.500,220.533 176.641,220.533 176.249 C 220.533 176.083,220.893 175.611,221.333 175.200 C 221.773 174.789,222.133 174.287,222.133 174.085 C 222.133 173.883,222.373 173.545,222.667 173.333 C 222.960 173.122,223.200 172.762,223.200 172.533 C 223.200 172.305,223.440 171.945,223.733 171.733 C 224.027 171.522,224.267 171.162,224.267 170.933 C 224.267 170.705,224.507 170.345,224.800 170.133 C 225.093 169.922,225.333 169.562,225.333 169.333 C 225.333 169.105,225.573 168.745,225.867 168.533 C 226.160 168.322,226.400 167.935,226.400 167.674 C 226.400 167.414,226.520 167.200,226.667 167.200 C 226.813 167.200,226.933 166.986,226.933 166.726 C 226.933 166.465,227.173 166.078,227.467 165.867 C 227.760 165.655,228.000 165.279,228.000 165.030 C 228.000 164.781,228.150 164.508,228.333 164.422 C 228.599 164.298,228.598 164.235,228.329 164.110 C 228.144 164.023,227.740 163.393,227.433 162.710 C 227.125 162.026,226.587 160.833,226.237 160.059 C 225.887 159.284,225.600 158.597,225.600 158.532 C 225.600 158.467,225.240 157.627,224.800 156.667 C 224.360 155.706,224.000 154.866,224.000 154.800 C 224.000 154.734,223.640 153.894,223.200 152.933 C 222.760 151.973,222.400 151.128,222.400 151.057 C 222.400 150.935,222.171 150.402,220.831 147.403 C 220.521 146.708,220.267 146.081,220.267 146.011 C 220.267 145.940,219.976 145.247,219.621 144.470 C 219.265 143.693,218.719 142.409,218.407 141.617 C 218.094 140.825,217.616 139.687,217.343 139.088 C 217.070 138.490,216.466 137.040,216.001 135.867 C 215.535 134.693,214.881 133.133,214.548 132.400 C 213.729 130.597,213.377 129.439,213.191 127.933 C 213.105 127.237,212.921 126.667,212.784 126.667 C 212.646 126.667,212.533 126.307,212.533 125.867 C 212.533 125.427,212.413 125.067,212.267 125.067 C 212.120 125.067,212.000 124.827,212.000 124.533 C 212.000 124.240,211.880 124.000,211.733 124.000 C 211.587 124.000,211.467 123.640,211.467 123.200 C 211.467 122.760,211.347 122.400,211.200 122.400 C 211.053 122.400,210.933 122.160,210.933 121.867 C 210.933 121.573,210.813 121.333,210.667 121.333 C 210.520 121.333,210.400 121.093,210.400 120.800 C 210.400 120.507,210.280 120.267,210.133 120.267 C 209.987 120.267,209.867 119.907,209.867 119.467 C 209.867 119.027,209.747 118.667,209.600 118.667 C 209.453 118.667,209.333 118.427,209.333 118.133 C 209.333 117.840,209.213 117.600,209.067 117.600 C 208.920 117.600,208.800 117.240,208.800 116.800 C 208.800 116.360,208.680 116.000,208.533 116.000 C 208.387 116.000,208.267 115.760,208.267 115.467 C 208.267 115.173,208.147 114.933,208.000 114.933 C 207.853 114.933,207.733 114.573,207.733 114.133 C 207.733 113.209,205.234 112.854,204.897 113.731 M334.528 115.479 C 334.794 116.356,335.200 116.772,335.200 116.168 C 335.200 115.908,335.004 115.499,334.765 115.260 C 334.362 114.858,334.345 114.874,334.528 115.479 M334.733 120.362 C 334.294 121.325,334.313 121.458,334.819 120.952 C 335.050 120.721,335.200 120.330,335.152 120.082 C 335.087 119.744,334.982 119.814,334.733 120.362 M333.600 125.067 C 333.372 125.492,333.397 125.600,333.724 125.600 C 333.956 125.600,334.133 125.368,334.133 125.067 C 334.133 124.773,334.078 124.533,334.009 124.533 C 333.941 124.533,333.757 124.773,333.600 125.067 M331.911 128.444 C 331.587 128.768,331.727 129.052,332.133 128.896 C 332.353 128.812,332.533 128.636,332.533 128.505 C 332.533 128.225,332.166 128.190,331.911 128.444 M328.397 133.336 C 327.977 133.775,327.721 134.133,327.829 134.133 C 328.104 134.133,329.415 132.792,329.276 132.653 C 329.213 132.590,328.817 132.898,328.397 133.336 " stroke="none" fill="#834c35" fill-rule="evenodd"></path></g></svg>